<svg t="1640402240373" viewBox="0 0 1024 1024" version="1.1" xmlns="http://www.w3.org/2000/svg" p-id="2811">
      <path d="M512 512m-512 0a512 512 0 1 0 1024 0 512 512 0 1 0-1024 0Z" fill="#3AD0F9" p-id="2812"></path>
      <path d="M278.4 788.8c-17.6 20-47.2 20.8-66.4 1.6l-13.6-13.6c-18.4-18.4-17.6-48 1.6-66.4l242.4-217.6c20-17.6 46.4-20.8 60-7.2 13.6 13.6 10.4 40.8-7.2 60L278.4 788.8z" fill="#AD5114" p-id="2813"></path>
      <path d="M443.2 493.6L412.8 520l56 56 27.2-30.4c17.6-20 20.8-46.4 7.2-60-12.8-13.6-40-9.6-60 8z" fill="#993F0D" p-id="2814"></path>
      <path d="M231.057506 760.944009a24 24 0 1 0 33.943495-33.938756 24 24 0 1 0-33.943495 33.938756Z" fill="#3AD0F9" p-id="2815"></path>
      <path d="M244 812c-14.4 0-28-5.6-37.6-16l-13.6-13.6c-10.4-10.4-16-24.8-16-39.2 0-14.4 6.4-28 17.6-38.4l242.4-217.6c12.8-11.2 28.8-17.6 43.2-17.6 11.2 0 20.8 4 28 10.4 16.8 16.8 13.6 48.8-7.2 71.2L284 793.6c-10.4 11.2-24.8 18.4-40 18.4z m237.6-326.4c-11.2 0-23.2 4.8-32.8 13.6L206.4 716.8c-8 7.2-12 16.8-12.8 27.2 0 10.4 4 20 11.2 27.2l13.6 13.6c7.2 7.2 16.8 11.2 26.4 11.2 10.4 0 20.8-4.8 28-12.8l217.6-242.4c14.4-16 18.4-39.2 8-49.6-5.6-4.8-12-5.6-16.8-5.6z" fill="#663210" p-id="2816"></path>
      <path d="M669.6 632.8c-24.8 24.8-65.6 24.8-90.4 0L357.6 411.2c-24.8-24.8-24.8-65.6 0-90.4L552 125.6c24.8-24.8 65.6-24.8 90.4 0L864 347.2c24.8 24.8 24.8 65.6 0 90.4L669.6 632.8z" fill="#EAEAEA" p-id="2817"></path>
      <path d="M403.096 281.992l27.152-27.152 311.12 311.12-27.144 27.152z" fill="#D4D6D6" p-id="2818"></path>
      <path d="M397.6 280l-40 40c-24.8 24.8-24.8 65.6 0 90.4L579.2 632c24.8 24.8 65.6 24.8 90.4 0l40-40-312-312z" fill="#FFFFFF" p-id="2819"></path><path d="M706.4 594.4c-2.4 0-4-0.8-5.6-2.4l-304-303.2c-3.2-3.2-3.2-8 0-11.2 3.2-3.2 8-3.2 11.2 0l304 303.2c3.2 3.2 3.2 8 0 11.2-1.6 1.6-4 2.4-5.6 2.4zM588 576c-6.4 0-12.8-2.4-17.6-7.2L415.2 420c-4.8-4.8-7.2-10.4-7.2-16.8s2.4-12 7.2-16.8l4-4c9.6-8.8 25.6-8.8 34.4 0l155.2 149.6c4.8 4.8 7.2 10.4 7.2 16.8s-2.4 12-7.2 16.8l-4 4c-4.8 4-10.4 6.4-16.8 6.4z m-152-184.8c-2.4 0-4 0.8-5.6 2.4l-4 4c-1.6 1.6-2.4 3.2-2.4 5.6 0 2.4 0.8 4 2.4 5.6l155.2 149.6c3.2 3.2 8.8 3.2 11.2 0l4-4c1.6-1.6 2.4-3.2 2.4-5.6 0-2.4-0.8-4-2.4-5.6L442.4 393.6c-1.6-1.6-4-2.4-6.4-2.4zM528.8 323.2c-2.4 0-4-0.8-5.6-2.4-3.2-3.2-3.2-8 0-11.2l144.8-144.8c3.2-3.2 8-3.2 11.2 0 3.2 3.2 3.2 8 0 11.2L534.4 320.8c-1.6 1.6-3.2 2.4-5.6 2.4zM656.8 292.8c-2.4 0-4-0.8-5.6-2.4-3.2-3.2-3.2-8 0-11.2l65.6-65.6c3.2-3.2 8-3.2 11.2 0 3.2 3.2 3.2 8 0 11.2l-65.6 65.6c-0.8 1.6-3.2 2.4-5.6 2.4zM685.6 434.4c-2.4 0-4-0.8-5.6-2.4-3.2-3.2-3.2-8 0-11.2l122.4-122.4c3.2-3.2 8-3.2 11.2 0 3.2 3.2 3.2 8 0 11.2L691.2 432c-1.6 1.6-4 2.4-5.6 2.4z" fill="#663210" p-id="2820"></path>
      <path d="M572 454.4c-2.4 0-4-0.8-5.6-2.4-3.2-3.2-3.2-8 0-11.2l122.4-122.4c3.2-3.2 8-3.2 11.2 0 3.2 3.2 3.2 8 0 11.2L577.6 452c-1.6 1.6-3.2 2.4-5.6 2.4zM451.2 328.8c-2.4 0-4-0.8-5.6-2.4-3.2-3.2-3.2-8 0-11.2l96.8-96.8c3.2-3.2 8-3.2 11.2 0 3.2 3.2 3.2 8 0 11.2L456.8 326.4c-1.6 1.6-3.2 2.4-5.6 2.4zM671.2 556c-2.4 0-4-0.8-5.6-2.4-3.2-3.2-3.2-8 0-11.2l122.4-122.4c3.2-3.2 8-3.2 11.2 0 3.2 3.2 3.2 8 0 11.2L676.8 553.6c-1.6 1.6-4 2.4-5.6 2.4zM248 776c-8.8 0-16.8-3.2-22.4-9.6-12.8-12.8-12.8-32.8 0-45.6 12-12 32.8-12 45.6 0 6.4 6.4 9.6 14.4 9.6 22.4 0 8.8-3.2 16.8-9.6 22.4-6.4 7.2-14.4 10.4-23.2 10.4z m0-48c-4 0-8 1.6-11.2 4.8-6.4 6.4-6.4 16.8 0 22.4 6.4 6.4 16.8 6.4 22.4 0 3.2-3.2 4.8-7.2 4.8-11.2 0-4-1.6-8-4.8-11.2-3.2-3.2-7.2-4.8-11.2-4.8z" fill="#663210" p-id="2821"></path>
      <path d="M596 615.2L374.4 394.4c-24.8-24.8-24.8-65.6 0-90.4l-16.8 16.8c-24.8 24.8-24.8 65.6 0 90.4l221.6 221.6c24.8 24.8 65.6 24.8 90.4 0l16.8-16.8c-24.8 24.8-65.6 24.8-90.4-0.8z" fill="#EAEAEA" p-id="2822"></path>
      <path d="M621.6 664c-19.2 0-37.6-7.2-51.2-21.6l-221.6-224c-13.6-13.6-20.8-32-20.8-52 0-19.2 7.2-37.6 20.8-52L544 117.6c13.6-13.6 32-21.6 51.2-21.6 19.2 0 37.6 7.2 51.2 21.6l221.6 224.8c28 28.8 28 74.4 0 103.2L672 642.4c-13.6 14.4-31.2 21.6-50.4 21.6z m-27.2-552c-15.2 0-28.8 5.6-39.2 16.8L360 326.4c-10.4 10.4-16 24.8-16 40s5.6 29.6 16 40l221.6 224.8c10.4 10.4 24.8 16.8 39.2 16.8 15.2 0 28.8-5.6 39.2-16.8L856 433.6c10.4-10.4 16-24.8 16-40s-5.6-29.6-16-40L634.4 128.8c-10.4-10.4-24.8-16.8-40-16.8z" fill="#663210" p-id="2823"></path>
      <path d="M280 688c-2.4 0-4-0.8-5.6-2.4-3.2-3.2-2.4-8 0-11.2l120-112c3.2-3.2 8-2.4 11.2 0 3.2 3.2 2.4 8 0 11.2l-120 112c-1.6 1.6-4 2.4-5.6 2.4z" fill="#FFFFFF" opacity=".5" p-id="2824"></path>
      <path d="M208 352c-17.6 0-32-14.4-32-32s14.4-32 32-32 32 14.4 32 32-14.4 32-32 32z m0-48c-8.8 0-16 7.2-16 16s7.2 16 16 16 16-7.2 16-16-7.2-16-16-16zM432 904c-17.6 0-32-14.4-32-32s14.4-32 32-32 32 14.4 32 32-14.4 32-32 32z m0-48c-8.8 0-16 7.2-16 16s7.2 16 16 16 16-7.2 16-16-7.2-16-16-16zM199.2 573.6c0-3.2-3.2-6.4-8-7.2l-15.2-2.4c-4-0.8-8.8-4.8-8.8-8.8l-2.4-15.2c-0.8-4-4-8-7.2-8s-6.4 3.2-7.2 8l-2.4 15.2c-0.8 4-4.8 8.8-8.8 8.8l-15.2 2.4c-4 0.8-8 4-8 7.2s3.2 6.4 8 7.2l15.2 2.4c4 0.8 8.8 4.8 8.8 8.8l2.4 15.2c0.8 4 4 8 7.2 8s6.4-3.2 6.4-8l2.4-16.8c0.8-4 4.8-8 8.8-8.8l14.4-0.8c6.4-0.8 9.6-4 9.6-7.2zM656.8 772c0-3.2-3.2-6.4-8-7.2l-15.2-2.4c-4-0.8-8.8-4.8-8.8-8.8l-2.4-15.2c-0.8-4-4-8-7.2-8s-6.4 3.2-7.2 8l-2.4 15.2c-0.8 4-4.8 8.8-8.8 8.8l-15.2 2.4c-4 0.8-8 4-8 7.2s3.2 6.4 8 7.2l15.2 2.4c4 0.8 8.8 4.8 8.8 8.8l2.4 15.2c0.8 4 4 8 7.2 8s6.4-3.2 6.4-8l2.4-16.8c0.8-4 4.8-8 8.8-8.8l14.4-0.8c6.4-0.8 9.6-4 9.6-7.2zM439.2 137.6c0-3.2-3.2-6.4-8-7.2L416 128c-4-0.8-8.8-4.8-8.8-8.8l-2.4-15.2c-0.8-4-4-8-7.2-8s-6.4 3.2-7.2 8l-2.4 15.2c-0.8 4-4.8 8.8-8.8 8.8l-15.2 2.4c-4 0.8-8 4-8 7.2s3.2 6.4 8 7.2l15.2 2.4c4 0.8 8.8 4.8 8.8 8.8l2.4 15.2c0.8 4 4 8 7.2 8s6.4-3.2 6.4-8l2.4-16.8c0.8-4 4.8-8 8.8-8.8l14.4-0.8c6.4-0.8 9.6-4 9.6-7.2z" fill="#FFFFFF" p-id="2825"></path>
      <path d="M880.8 376.8c-2.4-11.2-8-20.8-16.8-29.6L643.2 125.6c-21.6-21.6-54.4-24-79.2-8.8l1.6 4s-14.4 34.4 8.8 40c23.2 5.6 5.6 46.4 15.2 65.6s41.6 18.4 68 25.6c26.4 6.4 66.4 61.6 65.6 90.4-0.8 29.6 1.6 74.4 17.6 90.4s41.6 46.4 41.6 82.4v146.4c0 28.8 5.6 54.4 24 54.4s24-20 24-68-10.4-88 2.4-122.4c8.8-20.8 64.8-128 48-148.8z" fill="#FBD000" p-id="2826"></path>
      <path d="M802.4 728C784 728 776 704 776 680V512c0-24.8-17.6-48.8-43.2-75.2-17.6-17.6-20.8-62.4-20-97.6 0.8-25.6-36.8-77.6-59.2-83.2-6.4-1.6-12.8-2.4-19.2-4-21.6-4-44-8-52.8-25.6-4.8-9.6-4-21.6-3.2-33.6 0.8-18.4 0-26.4-6.4-28-12.8-3.2-21.6-12-24-24-3.2-12.8 0.8-27.2 10.4-34.4 7.2-6.4 20.8-9.6 36-9.6 21.6 0 40.8 7.2 52.8 19.2l217.6 223.2c11.2 11.2 23.2 31.2 23.2 52 0 16.8-19.2 69.6-40.8 124.8-2.4 5.6-4 9.6-4.8 12.8-9.6 25.6-10.4 54.4-10.4 88v64c0 40-8 47.2-29.6 47.2z m-208-616c-12.8 0-22.4 3.2-26.4 6.4-4.8 4-6.4 11.2-4.8 18.4 0.8 4.8 4 10.4 12 12 20 4.8 19.2 27.2 18.4 44.8-0.8 9.6-0.8 20 1.6 25.6 4.8 10.4 22.4 13.6 41.6 16.8 6.4 1.6 13.6 2.4 20 4 29.6 7.2 71.2 66.4 71.2 99.2-0.8 44 4.8 75.2 15.2 85.6C772.8 455.2 792 482.4 792 512v168c0 32 12.8 32 10.4 32-2.4 0 13.6 0 13.6-32V576c0-16 1.6-25.6 12-53.6 0.8-3.2 3.2-7.2 4.8-12.8 10.4-28 39.2-103.2 39.2-118.4 0-16-10.4-32-18.4-40.8l-217.6-224c-8.8-8.8-24.8-14.4-41.6-14.4z" fill="#663210" p-id="2827"></path>
      <path d="M815.2 504s-0.8 0 0 0c-4.8 0-7.2-4-7.2-8 0.8-10.4 4-21.6 10.4-36 1.6-4 5.6-5.6 9.6-4 4 1.6 5.6 5.6 4 9.6-5.6 12.8-8 22.4-8.8 31.2-1.6 4-4.8 7.2-8 7.2zM833.6 448c-0.8 0-2.4 0-3.2-0.8-4-1.6-5.6-6.4-3.2-10.4l0.8-1.6c7.2-14.4 13.6-28.8 13.6-38.4 0-16.8-27.2-39.2-37.6-45.6-3.2-2.4-4.8-7.2-2.4-11.2 2.4-4 7.2-4.8 10.4-2.4 4.8 3.2 44 31.2 44 59.2 0 13.6-7.2 28.8-15.2 45.6l-0.8 1.6c-0.8 2.4-4 4-6.4 4zM624 224h-1.6c-8-1.6-13.6-5.6-17.6-11.2-8-12.8-3.2-29.6-2.4-32 1.6-4 5.6-5.6 9.6-4.8 4 0.8 6.4 4.8 5.6 8.8-1.6 4-3.2 14.4 0.8 20.8 1.6 2.4 4 4 7.2 4.8 4 0.8 7.2 4.8 5.6 8 0 3.2-3.2 5.6-7.2 5.6zM807.2 680h-1.6c-4-0.8-6.4-4.8-5.6-8.8 3.2-18.4 1.6-38.4 1.6-38.4 0-4 2.4-8 6.4-8.8 4 0 7.2 2.4 7.2 7.2 0 0.8 1.6 22.4-1.6 42.4-0.8 4-3.2 6.4-6.4 6.4z" fill="#FFFFFF" p-id="2828"></path><path d="M833.6 922.4c0 16.8-9.6 30.4-21.6 30.4-12 0-21.6-13.6-21.6-30.4s9.6-30.4 21.6-30.4c12 0 21.6 13.6 21.6 30.4z" fill="#FBD000" p-id="2829"></path>
      <path d="M816 968c-17.6 0-32-17.6-32-40s14.4-40 32-40 32 17.6 32 40-14.4 40-32 40z m0-64c-8.8 0-16 11.2-16 24s7.2 24 16 24 16-11.2 16-24-7.2-24-16-24z" fill="#663210" p-id="2830"></path>
      </svg>
      